<svg width="210" height="97" viewBox="0 0 210 97" fill="none" xmlns="http://www.w3.org/2000/svg">
<path d="M99.2624 0.507751C90.8767 0.507751 82.131 4.87777 82.131 10.6873C82.131 17.9364 90.8767 19.3759 102.503 16.4969C109.809 40.0436 94.8895 37.3187 65.6683 44.6706C51.1092 49.0921 37.9391 60.9168 29.1419 60.9168C14.5828 60.9168 5.83699 52.074 1.4641 35.8278C-1.4683 62.3564 5.78554 74.1811 36.4472 81.533C37.9391 87.4454 37.9391 91.8668 36.4472 96.2883H53.9902C52.4982 91.8668 52.5497 88.8849 55.4821 83.024C65.5655 83.024 73.8997 81.9443 83.2113 77.1116C83.2113 81.533 83.2113 85.9545 80.2789 91.8668H97.8219C97.8219 88.8849 96.8444 84.0008 96.3814 80.0421C99.2624 74.1811 100.703 71.1992 100.703 62.3564C119.686 49.0921 125.551 1.9987 99.2624 0.507751ZM98.1306 6.3173C98.9537 6.3173 99.5711 6.98566 99.5711 7.75684C99.5711 8.57943 98.9537 9.24779 98.1306 9.24779C97.3075 9.24779 96.6901 8.57943 96.6901 7.75684C96.6901 6.98566 97.3075 6.3173 98.1306 6.3173V6.3173ZM81.668 79.3737C81.4622 79.4765 81.3078 79.528 81.1021 79.5794C81.1535 82.3556 78.9928 83.7952 77.8095 86.1087C78.8899 87.2398 79.1986 87.4454 80.4847 87.5482C81.4107 84.5663 81.6165 81.9957 81.668 79.3737V79.3737ZM30.1194 81.3274C31.0454 85.3375 29.7592 89.2448 28.4217 91.9182C29.7592 93.255 33.0518 93.3064 35.7269 93.3578C36.3443 90.1702 36.1385 86.8285 35.2125 82.6641C33.4119 82.2528 31.7142 81.7901 30.1194 81.3274Z" fill="#0082FB"/>
<path d="M140.56 20.48H149.2C152.667 20.48 155.133 20.88 156.6 21.68C158.093 22.48 159.013 23.76 159.36 25.52C159.733 27.28 159.92 30.1867 159.92 34.24C159.92 38.2933 159.733 41.2 159.36 42.96C159.013 44.72 158.093 46 156.6 46.8C155.133 47.6 152.667 48 149.2 48H140.56V20.48ZM149.04 42.84C150.693 42.84 151.8 42.7067 152.36 42.44C152.92 42.1733 153.267 41.52 153.4 40.48C153.56 39.4133 153.64 37.3333 153.64 34.24C153.64 31.1467 153.56 29.08 153.4 28.04C153.24 26.9733 152.88 26.3067 152.32 26.04C151.787 25.7733 150.693 25.64 149.04 25.64H146.76V42.84H149.04ZM164.388 48V20.48H180.948V25.64H170.588V31.52H179.468V36.68H170.588V42.84H180.948V48H164.388ZM199.525 48L191.445 32.28H191.245V48H185.285V20.48H191.565L199.125 34.92H199.325V20.48H205.285V48H199.525ZM150.24 84.32C146.907 84.32 144.52 83.92 143.08 83.12C141.667 82.2933 140.773 80.9867 140.4 79.2C140.053 77.3867 139.88 74.4 139.88 70.24C139.88 66.08 140.053 63.1067 140.4 61.32C140.773 59.5067 141.667 58.2 143.08 57.4C144.52 56.5733 146.907 56.16 150.24 56.16C153.6 56.16 155.987 56.5733 157.4 57.4C158.84 58.2 159.733 59.4933 160.08 61.28C160.427 63.0667 160.6 66.0533 160.6 70.24C160.6 74.4267 160.427 77.4133 160.08 79.2C159.733 80.9867 158.84 82.2933 157.4 83.12C155.987 83.92 153.6 84.32 150.24 84.32ZM150.24 79.16C151.68 79.16 152.64 79.0133 153.12 78.72C153.627 78.4267 153.947 77.7333 154.08 76.64C154.213 75.5467 154.28 73.4133 154.28 70.24C154.28 67.0667 154.213 64.9333 154.08 63.84C153.947 62.7467 153.627 62.0533 153.12 61.76C152.64 61.4667 151.68 61.32 150.24 61.32C148.8 61.32 147.827 61.4667 147.32 61.76C146.84 62.0533 146.533 62.7467 146.4 63.84C146.267 64.9333 146.2 67.0667 146.2 70.24C146.2 73.4133 146.267 75.5467 146.4 76.64C146.533 77.7333 146.84 78.4267 147.32 78.72C147.827 79.0133 148.8 79.16 150.24 79.16ZM178.452 84L175.252 74.36H171.252V84H165.052V56.48H176.372C178.639 56.48 180.346 56.8267 181.492 57.52C182.639 58.1867 183.399 59.1467 183.772 60.4C184.172 61.6533 184.372 63.32 184.372 65.4C184.372 67.3467 184.159 69.0133 183.732 70.4C183.306 71.76 182.439 72.76 181.132 73.4L184.972 84H178.452ZM174.372 69.24C175.546 69.24 176.372 69.1467 176.852 68.96C177.359 68.7733 177.692 68.44 177.852 67.96C178.012 67.4533 178.092 66.6133 178.092 65.44C178.092 64.24 178.012 63.4 177.852 62.92C177.719 62.4133 177.399 62.08 176.892 61.92C176.412 61.7333 175.586 61.64 174.412 61.64H171.252V69.24H174.372ZM198.204 72.92V68H207.204V83.4C206.031 83.6667 204.657 83.88 203.084 84.04C201.537 84.2267 200.111 84.32 198.804 84.32C195.737 84.32 193.457 83.96 191.964 83.24C190.497 82.4933 189.471 81.1467 188.884 79.2C188.324 77.2533 188.044 74.2667 188.044 70.24C188.044 66.4 188.337 63.4933 188.924 61.52C189.511 59.5467 190.564 58.16 192.084 57.36C193.631 56.56 195.937 56.16 199.004 56.16C200.497 56.16 202.031 56.2667 203.604 56.48C205.177 56.6667 206.337 56.8533 207.084 57.04V61.84C204.311 61.4933 202.311 61.32 201.084 61.32C198.817 61.32 197.271 61.4667 196.444 61.76C195.617 62.0533 195.057 62.7867 194.764 63.96C194.471 65.1067 194.324 67.2 194.324 70.24C194.324 73.0133 194.417 75 194.604 76.2C194.817 77.4 195.231 78.2133 195.844 78.64C196.484 79.0667 197.537 79.28 199.004 79.28C199.644 79.28 200.444 79.2533 201.404 79.2V72.92H198.204Z" fill="#004C93"/>
</svg>
